<?xml version="1.0" encoding="UTF-8"?>
<svg version="1.1" viewBox="0 0 2048 2048" width="512" height="512" xmlns="http://www.w3.org/2000/svg">
<path transform="translate(1258,131)" d="m0 0h20l35 2 35 4 33 6 32 8 26 8 24 9 26 11 19 9 22 12 25 15 20 14 11 8 14 11 11 9 10 9 8 7 9 9 2 1v2l4 2 7 8 10 10 7 8 11 13 13 17 11 15 15 23 10 17 12 22 12 25 11 27 12 36 8 30 7 34 5 36 2 25v62l-3 34-4 26-7 34-9 32-9 27-11 27-11 24-12 23-13 22-9 14 12 3 29 10 39 14 54 19 90 32 39 14 16 8 11 7 13 11 7 7 11 15 8 16 6 15 4 16v293l-6 48-6 32-6 25-8 26-10 28-14 32-11 22-14 24-14 22-13 18-12 15-9 11-11 12-7 8-24 24-8 7-15 13-14 11-15 11-18 12-17 10-19 9-25 9-30 7-22 3-15 1h-14l-24-2-22-4-23-6-19-7-25-12-17-10-14-10-16-12-14-12-11-9-16-15-21-21-9-11-9-10-7-9h-1l-9 44-6 21-8 19-8 15-13 19-14 15-8 8-14 11-14 9-17 9-25 9-24 5-17 2h-25l-26-4-20-6-18-8-15-8-17-12-11-10-8-7-7-8-11-14-8-13-9-17-8-21-5-21-4-31-30-301-3-29-4-16-6-16-8-14-8-11-9-10-12-11-19-12-19-8-15-4-13-2h-24l-18 3-16 5-19 9-14 10-10 9-9 9-11 16-8 15-7 21-4 31-6 65-10 100-11 113-6 58-5 24-5 15-8 18-10 17-10 13-9 10-12 12-16 12-15 9-17 8-21 7-19 4-17 2h-21l-17-2-21-5-12-4-18-8-14-8-14-10-10-9-8-7-9-10-11-15-10-17-8-18-5-15-6-28-18-101-25-141-7-42-9-41-10-37-8-26-11-31-14-35-6-14v-3l-2 1-9 32-5 16-4 6-5 4-7 2h-8l-8-4-5-6-4-11-12-40-8-20-8-16-7-11-11-13-12-10-15-9-17-8-25-9-31-9-9-4-6-5-4-8v-8l4-9 4-5 16-6 39-12 22-9 17-9 16-12-1-6-17-28-15-23-10-16-29-43-19-29-15-25-13-24-13-28-11-28-12-36-8-32-6-32-5-38-1-8v-74l6-44 7-36 7-28 8-26 12-32 13-29 10-20 13-23 16-25 10-14 12-16 14-17 12-14 12-12 2-3h2l2-4 15-14 3-3h2v-2l11-9 13-11 19-14 20-14 20-12 18-10 19-10 29-13 36-13 31-9 37-8 25-4 42-4h62l32 3 35 5 36 8 31 9 26 9 31 13 34 17 27 16 21 14 19 14 11 9 13 11 10 9 8 7 3 3 4-2 13-12 11-10 14-11 15-12 16-11 17-11 20-12 23-12 16-8 26-11 28-10 26-8 34-8 27-5 34-4z" fill="#DAE9EF"/>
<path transform="translate(1258,131)" d="m0 0h20l35 2 35 4 33 6 32 8 26 8 24 9 26 11 19 9 22 12 25 15 20 14 11 8 14 11 11 9 10 9 8 7 9 9 2 1v2l4 2 7 8 10 10 7 8 11 13 13 17 11 15 15 23 10 17 12 22 12 25 11 27 12 36 8 30 7 34 5 36 2 25v62l-3 34-4 26-7 34-9 32-9 27-11 27-11 24-12 23-13 22-9 14 12 3 29 10 39 14 54 19 90 32 39 14 16 8 11 7 13 11 7 7 11 15 8 16 6 15 4 16v293l-6 48-6 32-6 25-8 26-10 28-14 32-11 22-14 24-14 22-13 18-12 15-9 11-11 12-7 8-24 24-8 7-15 13-14 11-15 11-18 12-17 10-19 9-25 9-30 7-22 3-15 1h-14l-24-2-22-4-23-6-19-7-25-12-17-10-14-10-16-12-14-12-11-9-16-15-21-21-9-11-9-10-7-9h-1l-9 44-6 21-8 19-8 15-13 19-14 15-8 8-14 11-14 9-17 9-25 9-24 5-17 2h-25l-26-4-20-6-18-8-15-8-17-12-11-10-8-7-7-8-11-14-8-13-9-17-8-21-5-21-4-31-30-301-3-29-4-16-6-16-8-14-8-11-9-10-12-11-19-12-19-8-15-4-13-2h-24l-18 3-16 5-19 9-14 10-10 9-9 9-11 16-8 15-7 21-4 31-6 65-10 100-11 113-6 58-5 24-5 15-8 18-10 17-10 13-9 10-12 12-16 12-15 9-17 8-21 7-19 4-17 2h-21l-17-2-21-5-12-4-18-8-14-8-14-10-10-9-8-7-9-10-11-15-10-17-8-18-5-15-6-28-18-101-25-141-7-42-9-41-10-37-8-26-11-31-14-35-6-14v-3l-2 1-9 32-5 16-4 6-5 4-7 2h-8l-8-4-5-6-4-11-12-40-8-20-8-16-7-11-11-13-12-10-15-9-17-8-25-9-31-9-9-4-6-5-4-8v-8l4-9 4-5 16-6 39-12 22-9 17-9 16-12-1-6-17-28-15-23-10-16-29-43-19-29-15-25-13-24-13-28-11-28-12-36-8-32-6-32-5-38-1-8v-74l6-44 7-36 7-28 8-26 12-32 13-29 10-20 13-23 16-25 10-14 12-16 14-17 12-14 12-12 2-3h2l2-4 15-14 3-3h2v-2l11-9 13-11 19-14 20-14 20-12 18-10 19-10 29-13 36-13 31-9 37-8 25-4 42-4h62l32 3 35 5 36 8 31 9 26 9 31 13 34 17 27 16 21 14 19 14 11 9 13 11 10 9 8 7 3 3 4-2 13-12 11-10 14-11 15-12 16-11 17-11 20-12 23-12 16-8 26-11 28-10 26-8 34-8 27-5 34-4zm-21 43-33 3-36 6-30 7-35 11-28 11-28 13-23 13-20 12-12 8-14 10-13 10-13 11-8 7-10 9-7 7-7 6-7 8-22 22-8 7-15 13-15 12-18 13-21 14-13 8-23 13-16 8-28 13-35 13-29 9-32 8-31 6h-11l-9-4-5-5-3-6v-8l4-10 8-6 18-4 35-7 32-9 32-11 32-14 20-10 21-12 19-12 14-10 16-12 16-13 15-14 6-6-2-4-28-24-16-13-10-7-4-1-33 17-24 11-28 11-27 9-30 8-35 7-6 1h-14l-10-5-5-7-1-3v-8l3-8 4-5 9-4 43-8 24-6 26-8 19-7 30-13 15-7-4-4-23-12-24-11-29-11-26-8-24-6-33-6-34-4-14-1h-51l-32 3-32 5-28 6-31 9-29 10-25 11-25 12-20 11-18 11-19 13-16 12-10 8-14 12-13 12-24 24-9 11-9 10-10 13-14 19-10 16-12 20-14 27-12 27-9 25-8 25-6 24-6 31-3 22-3 39v32l3 40 4 28 5 25 7 28 8 26 12 31 11 24 8 16 12 22 12 19 10 15 25 37 8 12 13 20 12 19 7 11 4 4 4-9 18-54 5-8 5-4 5-2h10l6 3 5 5 5 12 8 28 7 21 8 18 7 13 8 11 11 12 14 11 21 11 24 9 40 12 11 6 5 8 1 8-3 8-4 6-10 5-41 12-24 9-21 11-12 9-10 10-3 5 12 26 11 26 12 31 14 41 12 41 11 45 8 40 13 74 35 196 4 20 6 17 9 17 7 10 12 14 14 12 18 11 20 8 21 5 9 1h18l16-2 20-5 17-7 11-6 14-10 13-12 11-13 8-13 8-16 5-16 3-18 3-30 13-155 7-81 6-69 3-19 6-20 9-21 10-17 1-3-5 1-25 13-24 16-16 13-10 9-16 16-9 11-11 14-10 15-7 6-5 2h-10l-8-3-5-5-3-5v-10l7-14 13-19 13-16 7-8 9-10 15-14 17-14 22-15 20-12 26-13 31-12 24-7 21-5 23-4 17-2 18-1h43l25 2 27 4 30 7 24 7 27 10 29 14 18 10 24 16 13 10 20 18 11 11 9 11 12 15 14 22 10 18 1 2v11l-6 9-8 5-7 1-10-4-7-8-12-20-13-18-12-14-11-12-13-12-14-11-16-11-15-9-24-12-2 1 10 17 8 17 6 18 4 21 4 34 12 123 16 159 4 32 5 19 7 16 6 11 10 14 14 15 14 11 15 9 18 8 13 4 16 3 9 1h19l19-3 15-4 15-6 16-9 12-9 10-9 7-7 11-15 9-15 6-15 5-17 11-56 5-27v-8l-13-23-8-16-9-19-11-27-12-36-9-36-6-32-4-31-2-23-1-57v-219l2-18 5-17 8-17 8-12 8-10 9-9 15-11 15-8 35-13 35-12 39-14 29-10 68-24 54-19 12-4 7-11 8-11 12-19 12-21 8-15 12-27 11-29 9-29 6-24 6-32 4-33 1-15v-53l-3-34-5-33-8-36-7-24-8-24-12-29-14-29-14-24-18-27-12-16-14-17-9-10-11-12-16-16-8-7-10-9-14-11-20-15-23-15-22-13-25-13-25-11-35-13-27-8-36-8-33-5-32-3z" fill="#322E3D"/>
<path transform="translate(346,211)" d="m0 0 1 2 8 1 17 5 20 8 17 9 17 12 10 9 8 7 12 14 10 16 8 16 5 12 6 21 3 25v16l-2 17-5 19-7 20-12 30-10 27-9 31-6 25-5 30-4 39-1 24v15l1 32 3 32 5 32 6 27 8 27 11 32 13 30 9 19 13 23 12 20 19 28 14 20 18 27 13 20 15 24 16 26 14 24 11 19 10 18 13 23 19 37 10 19 12 24 6 14h2l7-9 14-15 8-8 8-7 15-12 17-12 21-12 17-8 27-9 14-4 21-3 5-2-17 1-30 5-23 5-9-1-8-5-5-6-2-6 1-11 5-8 6-4 18-5 25-5 22-3 35-2 33 1 35 4 31 6 29 8 10 4 5 4 5 10v10l-6 9-5 4-8 3-13-2-26-7-24-5-23-3-18-1 19 3 15 1 3 2 21 5 20 7 24 11 23 14 14 10 16 13 7 6v2l4 2 16 17 13 18 12 19 12 23 8 19 7 21 1 12-8-6-7-7-13-10-24-16-21-12-22-11-23-9-24-8-31-8-21-4-26-3-15-1h-43l-26 2-26 4-23 5-25 7-24 9-18 8-22 11-24 15-16 12-11 9-10 9-13 12-11 12-13 17-8 11-11 18-2 5v10l5 8 7 4 4 1h10l8-4 7-8 10-15 13-16 12-13 15-15 14-11 12-9 19-12 25-13h3l-2 4-7 12-10 22-6 19-3 15-3 30-11 128-14 167-4 31-4 15-7 17-9 15-8 10-9 10-10 9-18 12-17 8-21 6-10 2-11 1h-18l-19-3-17-5-18-8-15-10-15-13-12-14-9-15-7-15-5-16-16-89-19-106-17-96-10-48-11-43-13-42-14-40-15-37-16-35 6-8 9-9 15-10 21-10 25-9 38-11 9-6 4-8 1-8-3-8-5-5-12-6-37-11-19-7-21-10-13-9-12-11-9-11-8-13-9-19-8-23-8-27-4-12-4-7-6-4-3-1h-10l-8 4-5 6-4 10-8 25-10 29-3 3-7-10-11-18-15-23-10-15-25-37-10-15-13-21-13-24-8-16-12-27-10-27-9-30-8-34-5-32-3-32-1-16v-32l3-39 4-28 8-38 7-24 9-27 11-26 12-25 12-22 12-19 8-12 12-16 11-14 13-15 11-12 24-24 8-7 13-11 17-13 17-12 17-11 21-12 23-12 24-11z" fill="#A2C5EF"/>
<path transform="translate(1681,996)" d="m0 0h7l22 6 29 10 125 45 38 14 26 9 29 11 17 9 13 12 7 10 6 12 4 14 1 9v264l-1 26-5 40-5 24-4 17-8 28-7 20-12 29-8 17-12 22-12 20-8 12-12 17-13 16-6 8h-2l-2 4-11 12-25 25-8 7-14 12-14 11-11 8-15 10-23 12-18 7-14 4-21 4-16 2-16 1-26-2-22-4-21-6-20-8-21-11-16-11-13-10-11-9-10-9-8-7-16-15-9-10-13-14-9-11-14-18-9-13-10-15-12-20-14-27-10-21-10-26-10-30-7-27-6-31-4-35-1-29-1-262 3-16 8-18 12-14 10-8 17-9 58-21 167-60 31-10z" fill="#27C085"/>
<path transform="translate(1257,242)" d="m0 0h45l28 3 27 5 31 8 25 9 24 11 19 10 16 10 17 12 14 11 14 12 13 12 9 9 9 11 11 13 14 19 9 13 10 17 8 15 13 31 9 29 7 31 4 29 2 29v20l-2 32-5 32-7 28-12 36-4 11-1 4h-5l-9-4-37-11-20-7-21-10-17-12-12-12-10-14-9-17-8-20-9-29-6-20-5-8-7-4-4-1h-8l-8 4-4 5-5 12-9 31-7 20-12 25-10 14-9 10-11 9-13 8-21 10-33 11-27 8-8 5-4 6-1 4v7l4 9 6 5 12 5 26 8 20 7 20 9 11 6 14 10 13 13 10 15 8 15 9 23 11 34 4 12 4 6 5 4 6 2h9l8-5 5-6 6-18 7-24 8-22 8-17 9-14 8-10 9-9 14-10 17-9 26-10 21-6h7l-6 8-10 14-12 17-9 11-11 14-8 10-8 11-13 18-20 30-10 16-12 19-6 11-15 25-10 15-8 11-4 6-1 4h2v2l-32 12-18 10-14 11-10 10-11 16-8 15-12 3-30 11-27 8-24 5-25 3-12 1h-32l-34-3-27-5-25-7-28-11-38-16-28-9-46-11-21-7-13-7-12-9-13-13-11-16-7-14-6-18-2-10v-27l4-18 9-26 12-29 15-36 13-32 12-29 15-37 18-44 11-27 15-37 11-27 11-28 19-47 16-40 20-51 16-42 18-45 7-16 11-19 8-11 11-13 17-17 17-13 13-8 14-8 22-9 17-5 23-4z" fill="#FCFCFC"/>
<path transform="translate(1677,1108)" d="m0 0h16l17 5 24 9 20 7 32 11 28 10 26 9h9l9-5 4-5 1-2h2v2l4 1 16 10 13 12 6 8 6 9 6 14 3 14 1 11 1 52v99l-1 41-2 16-3 15-5 16-6 15-10 18-10 14-11 13-13 13-16 12-11 7-17 9-16 6-13 4-16 3-23 2h-120l-27-1-26-5-21-7-16-8-14-8-13-10-10-9-12-12-11-14-7-11-7-12-10-25-4-16-3-20-1-14-1-38v-130l2-25 4-16 8-16 7-10 9-10 14-10 17-9 11-4h3l7 8 9 4 10-1 42-15 33-12 29-10z" fill="#85E08A"/>
<path transform="translate(1369,1123)" d="m0 0 1 2 12 1 9 5 10 12 2 6 1 207 2 36 4 34 6 34 7 30 7 25 12 35 10 24 7 16 10 19 11 20 13 21 9 13 12 17 2 4h3l1-5 8-9 6-3h8l7 3 10 9 12 13 20 20 11 9 14 11 13 9 17 9 15 5 10 2h27l16-4 13-5 16-9 13-10 10-8 11-10 8-7 19-19 7-8 5-5 6-5 2-1 10-1 12 3 7 5v2l4-1 14-23 11-17 12-21 12-23 8-18 5-11 10-27 7-21 9-33 7-32 4-23 4-35 2-36 1-191 1-17 3-7 6-7 9-6 11-1 2-1 5 10 4 14 1 9v264l-1 26-5 40-5 24-4 17-8 28-7 20-12 29-8 17-12 22-12 20-8 12-12 17-13 16-6 8h-2l-2 4-11 12-25 25-8 7-14 12-14 11-11 8-15 10-23 12-18 7-14 4-21 4-16 2-16 1-26-2-22-4-21-6-20-8-21-11-16-11-13-10-11-9-10-9-8-7-16-15-9-10-13-14-9-11-14-18-9-13-10-15-12-20-14-27-10-21-10-26-10-30-7-27-6-31-4-35-1-29-1-262 3-16z" fill="#279185"/>
<path transform="translate(1041,1339)" d="m0 0 6 2 24 12 20 13 16 12 12 11 10 9 11 12 8 10 13 18 4 8h-2l2 12 7 74 15 151 6 52 3 14 5 12 4 5v2h2v2h2v2l4 2 10 6 11 4 6 1h13l13-4 10-5 8-7 8-14 7-21 9-40 15-79 11-63 2-8 2 4 12 36 10 25 11 24 8 16 10 18 3 5v8l-10 53-7 34-7 21-8 16-9 13-9 11-11 11-15 11-16 9-15 6-19 5-15 2h-19l-20-3-15-4-17-7-16-9-13-10-12-11-9-11-10-15-9-19-5-17-3-19-8-77-20-201-5-50-4-23-5-16-6-15-10-19z" fill="#7992EA"/>
<path transform="translate(752,1340)" d="m0 0h3l-2 4-7 12-10 22-6 19-3 15-3 30-11 128-14 167-4 31-4 15-7 17-9 15-8 10-9 10-10 9-18 12-17 8-21 6-10 2-11 1h-18l-19-3-17-5-18-8-15-10-15-13-12-14-9-15-7-15-5-16-9-50v-5l8-4 10-6 14-5h15l16 5 10 6 11 11 6 10 6 22 6 10 7 7 9 5 10 4 6 1h12l11-3 11-6 5-4 6-8 5-12 3-16 6-57 17-174 6-62 1-13-1-2 11-14 14-15 14-14 14-11 12-9 19-12z" fill="#7992EA"/>
<path transform="translate(1417,584)" d="m0 0h8l8 3 6 5 5 12 10 34 8 22 9 19 10 15 11 12 8 7 14 9 19 9 36 12 24 7 8 4 6 7 3 8-1 9-4 6-7 6-18 6-31 9-27 11-16 9-13 10-9 9-11 16-8 15-8 20-8 25-6 21-4 8-8 7-4 2h-9l-9-4-6-7-4-10-11-35-8-21-8-17-10-15-9-10-10-9-16-10-19-9-25-9-32-10-9-5-6-7-2-6v-7l3-8 7-6 13-5 31-9 20-7 25-12 14-10 12-11 10-14 12-23 9-25 11-37 5-9 6-5z" fill="#322E3D"/>
<path transform="translate(1673,1181)" d="m0 0h19l16 4 27 9 19 7 14 7 6 8 2 6v11l-5 10-7 8-8 7-10 9-14 11-16 13-19 14-17 12-27 18-13 8-18 11-14 7-6 2h-17l-11-4-11-8-7-11-3-8-1-6v-40l2-18 4-15 8-16 8-10 8-8 13-9 19-9 45-16z" fill="#FCFCFC"/>
<path transform="translate(202,460)" d="m0 0h10l7 4 7 8 2 9-2 9-10 23-9 25-7 23-7 33-4 29-2 27v20l1 22 4 34 7 34 8 28 11 29 11 24 7 14 2 6-1 9-5 9-9 6-3 1h-8l-8-3-5-4-8-13-10-21-11-27-10-30-7-28-5-27-4-32-1-15v-45l3-32 4-26 6-28 8-28 7-20 8-20 8-17 5-5 6-4z" fill="#322E3D"/>
<path transform="translate(1279,269)" d="m0 0h18l30 2 32 5 24 6 27 9 21 9 17 8 24 14 19 13 18 14 10 9 8 7 16 16 6 10 2 6v9l-5 10-10 6h-12l-10-5-10-9v-2l-4-2-13-13-11-9-19-14-20-12-19-10-15-7-15-6-26-8-28-6-25-3-17-1h-19l-26 2-24 4-17 4-19 5h-7l-8-3-6-8-2-5v-13l4-7 5-4 12-5 17-5 28-6 21-3z" fill="#322E3D"/>
<path transform="translate(1809,1277)" d="m0 0h10l10 5 4 5 3 7v10l-6 9-199 199-10 5h-7l-8-3-10-9-63-63-6-11v-8l4-8 5-5 4-3 10-2 9 3 10 9 46 46 5-1 181-181z" fill="#322E3D"/>
<path transform="translate(1833,1665)" d="m0 0 13 3 5 4 4 7v10l-7 12-12 14-9 9-6 7-8 7-7 7-11 9-14 11-20 14-17 9-19 7-16 4-16 2h-18l-24-4-18-6-17-8-17-11-15-11-16-13-12-11-25-25-9-11-4-6-1-8 4-9 7-8 6-3h8l7 3 10 9 12 13 20 20 11 9 14 11 13 9 17 9 15 5 10 2h27l16-4 13-5 16-9 13-10 10-8 11-10 8-7 19-19 7-8 5-5 6-5 2-1z" fill="#322E3D"/>
<path transform="translate(1674,1064)" d="m0 0h18l21 5 102 36 25 9 14 6 8 9 3 10-1 8-4 6-5 4-6 3h-9l-52-18-28-10-22-8-23-8-17-6-5-1h-16l-36 12-95 34-10 1-10-5-7-8-2-7 1-7 5-10 9-6 40-14 42-15 48-17z" fill="#322E3D"/>
<path transform="translate(244,1069)" d="m0 0h3l6 15 10 18 10 13 9 10 8 8 16 12 10 6 17 8 6 2-1 3-18 8-18 11-11 9-13 12-11 14-9 14-8 16-3 9h-2l-10-21-10-16-11-14-12-12-13-10-13-8-16-8-11-5 1-2 16-7 13-7 17-12 15-14 9-11 10-14 7-11z" fill="#F3BC5F"/>
<path transform="translate(1422,676)" d="m0 0 3 3 5 12 9 16 10 14 12 13 7 7 15 11 19 11 15 6-2 3-16 7-16 9-12 9-15 14-9 11-10 15-8 15-5 12-3-1-6-15-8-14-9-13-11-12-11-11-15-11-25-13-7-3v-2l18-8 18-11 11-9 10-9 10-11 11-16 9-16z" fill="#F3BC5F"/>
<path transform="translate(892,1112)" d="m0 0 33 1 35 4 31 6 29 8 10 4 5 4 5 10v10l-6 9-5 4-8 3-13-2-26-7-24-5-23-3-13-1h-54l-25 3-39 8-9-1-8-5-5-6-2-6 1-11 5-8 6-4 18-5 25-5 22-3z" fill="#322E3D"/>
<path transform="translate(1613,879)" d="m0 0 49 4 36 3 3 2-13 23-12 19-12 17-5 8-21 7-93 33-20 7-3-1 4-2 7-14 10-13 8-11 10-13 12-16 20-26 13-18z" fill="#A2C5EF"/>
<path transform="translate(888,1261)" d="m0 0h48l22 2 25 5 25 6 36 12 25 11 25 13 15 10 8 6v2l3 1 5 6v2h2l5 7-4-2-17-12-21-13-27-14-23-10-30-10-31-8-21-4-26-3-15-1h-43l-26 2-26 4-15 3h-5l4-2 28-6 15-3 11-1 2-1z" fill="#7992EA"/>
<path transform="translate(916,1156)" d="m0 0 19 1 16 2v2h-15l-19-3z" fill="#D2E2EF"/>
</svg>
