<?xml version="1.0" encoding="UTF-8"?>
<svg version="1.1" viewBox="0 0 2048 2048" width="512" height="512" xmlns="http://www.w3.org/2000/svg">
<path transform="translate(766,295)" d="m0 0h39l33 3 30 5 25 6 23 7 21 8 24 11 25 13 19 12 17 12 14 11 13 11 12 11 21 21 9 11 11 13 10 14 12 18 12 21 12 23 13 32 8 25 6 24 5 28 3 27v73h204l18 2 12 5 10 7 8 8 8 14 3 11 1 101h86v-472l4-15 6-12 7-9h2l1-3 10-7 10-5 10-3h114l16 5 10 6 10 9 8 11 5 11 2 11v504l-1 32-5 16-6 11-9 11-15 14-8 7-13 12-8 8-8 7-13 12-6 5-1 28v139l2 12 13 26 10 19 14 27 15 29 11 21 10 25 6 20 5 25 2 18v305l-6 8-2 1-44 1h-135l-9-1-7-6-2-6-1-80 1-216 3-27 5-24 10-30 14-29 20-39 10-19 14-27 10-19 2-6v-175l-13-12-8-7-12-11-9-9-8-7-13-12-10-9-8-10-8-16-3-15v-30l-87 1-1 100-3 11-5 10-7 9-8 7-14 7-15 3-143 1-10 2-12 6-8 7-7 10-5 16v13l3 12 12 25 16 32 11 23 28 56 13 29 10 26 10 31 8 32 5 26 4 30 2 24 1 47v41h10l16 3 16 8 11 9 8 10 7 14 3 11 1 33v76l-1 32-6 7-2 1-43 1h-252l-10-2-6-6-1-3-1-15v-70l1-52 3-12 8-16 9-10 9-8 16-8 7-2 19-2v-75l-2-29-4-30-6-31-8-30-11-33-10-24-16-34-26-52-11-23-28-56-11-23-21-42-13-28-5 2-32 16-33 13-27 8-30 7-23 4 1 7v318l2 10 9 19 10 19 12 25 7 20 5 18 4 23 2 21v173l-2 6-4 5-2 1-22 1h-158l-10-2-5-5-2-6v-177l3-25 4-19 6-21 9-22 8-16 9-17 8-16 3-7 1-7v-325l-7-2-39-8-30-9-29-11-31-15-24-14-19-13-12-9-16-13-12-11-6-5v-2l-4-2-4-4v-2l-3-1-7-8-11-12-11-14-13-18-14-22-14-26-12-27-10-28-7-25-6-30-3-26v-2l-32 16-9 7-3 1-2 4-5 6-5 9-4 10-2 8-1 14 2 13 4 12 6 10 12 14 54 54 9 13 8 16 5 17 2 17 1 217 4 10 11 22 10 19 28 54 11 21 11 27 6 21 4 21 3 29v320l-1 13-6 7-2 1-19 1h-160l-9-1-6-5-2-4-1-41v-290l3-30 6-28 8-24 8-18 12-24 10-19 17-33 10-19 12-23 2-6 1-15v-195l-1-16-4-15-7-14-11-14-56-56-10-14-6-12-5-15-2-12v-17l4-20 7-16 7-12 11-12 8-7 13-8 16-8 21-10 1-1 2-39 4-32 5-25 7-27 10-29 11-25 11-22 12-20 8-12 10-14 13-16 9-11 9-9 7-8 16-15 11-9 16-13 22-15 20-12 22-12 25-11 28-10 29-8 32-6 25-3z" fill="#050078"/>
<path transform="translate(774,386)" d="m0 0h29l30 3 26 5 24 7 24 9 25 12 17 10 19 13 14 11 12 11 2 1v2l4 2 8 8v2h2l7 8 14 17 10 14 7 11 10 17 11 23 9 24 7 25 5 25 3 30v34l-2 22-2 4-28 6-21 7-20 11-16 11-13 12-11 11-13 18-9 16-7 16-7 23-3 19v31l3 20 3 11v6l-22 12-16 8-24 9-24 7-24 5-23 3-14 1h-26l-24-2-24-4-21-5-33-11-26-12-16-9-21-14-16-13-9-7-16-15-7-7-7-8-13-16-10-14-10-16-7-12-12-26-12-36-6-27-3-24-1-18v-16l3-3 29-14 41-20 14-7 5-5 1-2v-8l-4-6-6-3-7 1-16 7-22 11-23 11-11 5h-1v-8l6-29 8-27 9-22 12-25 13-21 13-18 11-13 11-12 15-15 22-18 17-12 24-14 19-9 26-10 29-8 21-4 18-2z" fill="#FCFDFC"/>
<path transform="translate(1172,762)" d="m0 0h122l38 1 1 1v267l-2 1h-61l-24 1-16 4-16 8-12 11-7 8-8 14-5 16-1 16 2 15 6 17 21 42 11 23 31 62 13 28 10 26 9 27 8 30 6 30 4 31 2 31v75l-1 1h-120l-1-1-1-87-4-39-5-29-6-27-8-28-10-29-11-26-16-34-25-50-11-23-23-46-11-23-29-58-11-23-16-33-11-22-11-28-4-17-2-19v-10l2-18 5-19 6-16 11-19 11-14 15-15 12-9 11-7 18-8 16-5 12-2 14-1z" fill="#FDFDFC"/>
<path transform="translate(682,471)" d="m0 0h31l17 4 18 8 15 9 6 1 21-1 21-5 28-11 15-4 7-1h31l18 4 15 6 11 7 11 9 9 11 8 14 6 14 4 18 1 8v17l-4 26-8 26-11 27-7 18-5 19-1 7v20l2 18v38l-3 22-6 26-8 22-10 21-11 17-7 9-12 14-11 10-15 10-8 3-9 1-9-2-10-7-6-9-3-9 1-11 7-27 3-25v-20l-2-19-4-19-7-19-7-12-4-5-8-5-8-1-8 4-9 10-8 16-6 20-3 19-1 14v12l2 23 5 23 4 16-1 11-5 10-8 7-9 4-8 1-10-2-12-7-11-9-4-3v-2h-2l-7-8-10-12-10-15-9-16-10-24-7-24-4-22-1-9v-38l2-21v-19l-3-16-6-18-13-32-9-27-4-20-1-10v-17l3-18 5-16 7-14 12-16h2v-2l10-8 13-8 16-6z" fill="#FDFDFC"/>
<path transform="translate(1587,386)" d="m0 0h107l9 3 9 7 6 10 2 8v526l-2 8-5 10-9 10-8 7-12 11-11 9-24 22-3 3h-2l-1 3-4-1-12-11-11-9-12-11-8-7-14-12-12-12-5-8-3-9-1-31 1-1h13l3 3 6 12 6 8 9 7 12 5 9 2h16l12-4 10-6 6-5 7-10 5-11 2-10v-10l-3-13-6-11-9-10-9-6-9-4-11-2h-10l-13 3-11 6-10 9-8 13-2 6-2 1h-8l-6-2v-376l1-92 2-9 6-9 7-6 6-3z" fill="#FEE8A1"/>
<path transform="translate(682,471)" d="m0 0h31l17 4 18 8 15 9 6 1 21-1 21-5 28-11 15-4 7-1h31l18 4 15 6 11 7 11 9 9 11 8 14 6 14 4 18 1 8v17l-4 26-8 26-11 27-7 18-5 19-1 7v20l2 18v38l-3 22-6 26-8 22-10 21-11 17-7 9-12 14-11 10-15 10-8 3-9 1-9-2-10-7-6-9-3-9 1-11 7-27 3-25v-20l-2-19-4-19-7-19-7-12-4-5-8-5-8-1-8 4-9 10-8 16-6 20-3 19-1 14v12l2 23 5 23 4 16-1 11-5 10-8 7-9 4-8 1-10-2-12-7-11-9-4-3v-2h-2l-7-8-10-12-10-15-9-16-10-24-7-24-4-22-1-9v-38l2-21v-19l-3-16-6-18-13-32-9-27-4-20-1-10v-17l3-18 5-16 7-14 12-16h2v-2l10-8 13-8 16-6zm4 27-14 3-12 5-9 6-8 7-7 10-6 12-3 11-1 7v24l4 20 9 27 12 29 6 18 4 19 1 10v10l-3 31v25l3 24 5 21 5 15 8 18 6 11 12 17 14 15 9 7 8 5 3-1-4-18-5-28-1-11v-31l3-24 5-20 7-18 8-14 9-11 13-9 13-4h14l12 4 9 6 6 5 10 14 8 16 7 21 4 22 1 11v33l-3 24-6 25-1 7 3 1 11-7 13-12 10-12 10-15 9-17 9-24 5-21 3-21v-31l-2-17v-32l5-22 7-20 11-27 9-27 3-16v-25l-3-14-5-13-9-13-10-9-16-8-11-3-6-1h-20l-16 3-29 11-7 3 3 2 9 2 27 3 6 3 3 5v9l-4 6-4 2h-18l-27-4-20-6-18-8-21-12-15-9-15-7-13-3z" fill="#050078"/>
<path transform="translate(342,1433)" d="m0 0h104l45 1v291h-150v-291z" fill="#FDA1B1"/>
<path transform="translate(782,322)" d="m0 0 30 1 28 3 32 6 25 7 23 8 21 9 26 13 21 13 17 12 17 13 10 9 8 7 5 5 7 6 7 8 9 10 9 11 14 19 10 15 12 21 8 16 11 25 11 33 7 30 4 25 2 23v45l-2 20h-36l1-18v-50l-3-26-6-30-8-27-8-21-9-20-13-23-10-16-12-16-8-10-9-10-7-8-11-11-8-7-14-12-11-8-21-14-23-13-31-14-30-10-25-6-27-4-25-2h-24l-28 2-25 4-25 6-20 6-28 11-19 9-14 8-16 10-18 13-11 9-14 12-19 19-9 11-12 15-14 21-11 19-13 27-10 26-7 24-6 31-3 24-4 4-16 8-15 8h-2v-17l4-35 7-34 8-28 11-28 12-25 12-21 15-22 10-13 11-13 9-10 12-13 20-18 14-11 18-13 21-13 22-12 27-12 22-8 25-7 29-6 33-4z" fill="#89EAFD"/>
<path transform="translate(1566,1470)" d="m0 0h130l19 1 1 1v253l-150 1z" fill="#FEE8A1"/>
<path transform="translate(1714,404)" d="m0 0h3l2 4 1 6v526l-2 8-5 10-9 10-8 7-12 11-11 9-24 22-3 3h-2l-1 3-4-1-12-11-11-9-12-11-8-7-14-12-12-12-5-8-3-9-1-31 1-1h13l3 3 6 12 6 8 9 7 12 5 9 2h16l12-4 10-6 6-5 7-10 5-11 2-10v-10l-2-12-2-21 1-346 1-24 3-17 5-17 11-24 11-18z" fill="#FEB988"/>
<path transform="translate(450,700)" d="m0 0h2l4 38 5 28 7 25 7 21 12 27 13 24 14 21 9 12 13 16 14 15 10 10 8 7 12 10 15 11 15 10 21 12 27 13 24 9 28 8 26 5 26 3 28 1 30-2 28-4 30-7 33-11 26-12 17-9 2-2h3l8 16 6 13-1 5-23 12-15 7-20 8-24 8-29 7-33 5-25 2h-38l-35-4-31-6-31-9-26-10-16-7-19-10-17-10-19-13-13-10-17-14-16-15-9-9-7-8-12-14-12-16-12-18-9-15-12-23-10-23-12-36-6-25-5-31-2-19 8-5 23-11z" fill="#89EAFD"/>
<path transform="translate(1332,956)" d="m0 0h1v75l-2 1h-61l-24 1-16 4-16 8-12 11-7 8-8 14-5 16-1 16 2 15 6 17 21 42 11 23 31 62 13 28 10 26 9 27 8 30 6 30 4 31 2 31v75l-1 1h-44l-1-112-1-33-4-41-6-32-8-32-12-36-11-27-13-28-11-22-11-23-13-26-11-23-14-28-6-16-2-11 1-17 5-16 7-12 9-10 10-7 13-6 16-3 24-1h101l11 1z" fill="#F1D9C7"/>
<path transform="translate(1146,1575)" d="m0 0h193l11 3 9 4 8 7 6 10 2 6 1 7v45h-266v-48l3-10 7-10 9-8 11-5z" fill="#89EBFD"/>
<path transform="translate(714,1592)" d="m0 0h146l1 1 1 131-1 1h-150v-130z" fill="#FCFDFC"/>
<path transform="translate(443,1433)" d="m0 0 48 1v291h-144v-1l8-1-1-7 10-8 11-8 11-6 14-8 15-8 16-10 8-7 4-7 3-21v-185l-1-13z" fill="#E97F93"/>
<path transform="translate(923,514)" d="m0 0 4 2 7 8 7 12 5 16 1 7v25l-4 20-9 26-12 29-6 18-4 19v32l2 17v31l-4 26-5 19-10 25-10 18-12 16-9 10-6 5h-2v-2h-2l1-7 5-10 5-19 3-16 1-9v-23l-6-75v-40l3-24 5-25 11-49 6-20 8-20 10-20 10-15 6-5z" fill="#F2D9C8"/>
<path transform="translate(415,1223)" d="m0 0 3 1 7 14 10 19 14 27 10 19 11 21 10 25 6 22 4 22 1 12-1 1h-148l-1-3 4-27 6-23 9-24 13-26 10-19 15-29 10-18z" fill="#FDFDFC"/>
<path transform="translate(1640,1259)" d="m0 0h2l6 12 10 19 15 29 12 23 10 19 8 20 5 16 5 22 2 13v9l-13 1h-136l1-13 4-22 5-19 8-21 14-28 10-19 29-56z" fill="#FDFDFC"/>
<path transform="translate(1587,386)" d="m0 0h107l4 1v2l-11 7-12 6-24 8-12 2-16 2-12 4-9 6-8 9-4 9-1 9v402l1 8-7 9-5 10-1 3-2 1h-8l-6-2v-376l1-92 2-9 6-9 7-6 6-3z" fill="#FAFCFC"/>
<path transform="translate(1360,763)" d="m0 0h36l10 4 6 5 5 8 2 10v216l-2 9-6 8-6 5-10 3-33 1-2-7z" fill="#8AEBFD"/>
<path transform="translate(764,1089)" d="m0 0h45l1 1v318l-7 1h-39l-1-1-1-42v-199l1-77z" fill="#FBFDFC"/>
<path transform="translate(1647,1470)" d="m0 0h49l19 1 1 1v253h-139l4-2h2l1-5 11-10 12-9 17-13 18-13 12-9 8-9 4-8 2-7 1-9 1-24v-136h-23z" fill="#FEB888"/>
<path transform="translate(758,1436)" d="m0 0h57l5 8 17 33 8 17 7 20 5 19 4 28-1 4h-148l1-15 4-22 7-24 9-21 11-22 12-22z" fill="#89EBFD"/>
<path transform="translate(939,886)" d="m0 0h1l1 31 3 20 3 11v6l-22 12-16 8-24 9-24 7-24 5-23 3-14 1h-26l-24-2-24-4-21-5-33-11-26-12-16-9-21-14-11-9h3l15 5 17 6 26 7 36 6 24 2h31l28-3 26-5 28-8 19-7 16-6 22-12 14-8 10-7 18-13 4-3z" fill="#F1D9C8"/>
<path transform="translate(1110,1684)" d="m0 0h265l1 1v40h-265l-1-3z" fill="#E97F93"/>
<path transform="translate(858,1592)" d="m0 0 3 1 1 131-1 1h-149v-1h6v-5l7-7 18-12 19-12 25-13 17-10 7-7 4-11 1-12 1-42z" fill="#F2D9C7"/>
<path transform="translate(1418,790)" d="m0 0h1v216l-2 9-6 8-6 5-10 3-33 1-2-7v-234h1v198l11-4 16-4 1-40 2-71 2-28 3-12 8-16 6-5 2 1 3-1 1-3h2l-1-14z" fill="#76CEF4"/>
<path transform="translate(1025,501)" d="m0 0 5 5 9 12 9 14 10 17 11 23 9 24 7 25 5 25 3 30v34l-2 22-2 4-28 6-21 7h-4v-8l7-24 6-29 3-24v-44l-3-31-6-30-9-31-5-11z" fill="#F1D9C7"/>
<path transform="translate(1146,1575)" d="m0 0h193l-2 4-16 8-15 7-15 5-10 2-26 2-68 1-15 2-10 4-9 7-4 5-5 9-6 15-1 10-2 1h-25v-48l3-10 7-10 9-8 11-5z" fill="#FCFDFC"/>
<path transform="translate(342,1433)" d="m0 0h25l1 1v195l-3 21-6 18-9 19-7 10-2 3v-266z" fill="#FDFDFC"/>
<path transform="translate(762,698)" d="m0 0h16l13 4 12 7 5 6v5l-10-3-4-1h-14l-13 4-10 7-6 5-9 13-8 16-6 18-4 19-2 18v31l2 18 7 34 1 5-3 1-11-7-12-11-9-10-11-16 1-9 6-10 4-8 2-11 1-34 2-19 4-17 5-13 7-13 8-10 8-7 14-8z" fill="#F1D9C8"/>
<path transform="translate(1644,1267)" d="m0 0h2l14 27 12 23 13 25 10 19 8 20 5 16 5 22 2 13v9l-13 1h-33l-1-1-10-60-10-61-5-31-1-20z" fill="#F2D9C8"/>
<path transform="translate(1566,1470)" d="m0 0h24l2 1 1 41v92l-1 38-4 20-10 25-5 10-5 5-2 3z" fill="#FDFDFC"/>
<path transform="translate(421,1232)" d="m0 0 3 4 12 23 13 25 10 19 11 21 10 25 6 22 4 22 1 12-1 1h-45l-6-51-4-28-6-35-7-34-1-10z" fill="#F2D8C7"/>
<path transform="translate(762,1436)" d="m0 0h53l5 8 17 33 8 17 7 20 5 19 4 28-1 4-43-1-2-12-3-41-2-44-1-6-1-20 1-3-47-1z" fill="#76CEF4"/>
<path transform="translate(758,1436)" d="m0 0 15 1-1 7-8 37-10 46-7 30-2 7-19 1h-14l1-15 4-22 7-24 9-21 11-22 12-22z" fill="#FCFDFC"/>
<path transform="translate(1620,873)" d="m0 0h13l8 4 5 5 4 6 1 3v12l-4 8-4 5-6 4-6 2h-9l-9-4-7-6-3-7v-15l4-8 8-7z" fill="#FD9FAF"/>
<path transform="translate(1354,1591)" d="m0 0h3v5l1 3 4 1 5 13 2 19 2 7-1 9-6 4-18 2-4-1-4 1h-3l-3-5v-8l5-17 8-18z" fill="#76CEF4"/>
<path transform="translate(1562,911)" d="m0 0h13l3 3 6 12 5 6-1 43-4-1-14-14-5-8-3-9-1-31z" fill="#FBFCFC"/>
<path transform="translate(1360,763)" d="m0 0h36l10 4 2 3-7 3-19 10-14 6-7 1-1-1z" fill="#FDFDFC"/>
<path transform="translate(813,1436)" d="m0 0 4 2 8 15 8 16 12 25 7 20 5 19 2 12v10l-3 1-1-2-1-10-2-11-1-1-2-10-5-11-6-14-10-19-8-15-2-5-4-6-2-7 1-4-1-4z" fill="#88E9FD"/>
<path transform="translate(1589,934)" d="m0 0 5 3 5 4 12 5 9 2 2 3-12 11-13 10h-2l-2 4-4 2-2-3 1-40z" fill="#FEE6A0"/>
<path transform="translate(1110,1684)" d="m0 0h26l-2 5-8 7-12 12-4 2z" fill="#F5F8F9"/>
<path transform="translate(830,1560)" d="m0 0 3 1h19l3-1v2l6-1-1 4-35-1-1-2 6-1z" fill="#83E2FA"/>
<path transform="translate(419,649)" d="m0 0h2l-2 28 1 8-3 1v-17z" fill="#76CEF4"/>
<path transform="translate(830,1560)" d="m0 0 3 1 12 1v1l-6 1h-14l-1-2 6-1z" fill="#8AECFE"/>
</svg>
